<?xml version="1.0" encoding="utf-8"?>
<!-- Generator: Adobe Illustrator 24.1.1, SVG Export Plug-In . SVG Version: 6.00 Build 0)  -->
<svg version="1.1" id="Layer_1" xmlns="http://www.w3.org/2000/svg" xmlns:xlink="http://www.w3.org/1999/xlink" x="0px" y="0px"
	 viewBox="0 0 512 512" style="enable-background:new 0 0 512 512;" xml:space="preserve">
<g>
	<path d="M92.2,9.9C31.3,80.5,0.8,168.3,0.8,256c0,87.6,30.5,175.5,91.5,246.1c10.3,11.9,28.2,13.2,40.1,3
		c11.9-10.3,13.2-28.2,3-40.1c-51.8-60.1-77.6-134.5-77.7-209c0-74.5,25.9-148.9,77.7-209c10.3-11.9,8.9-29.9-3-40.1
		S102.5-2,92.2,9.9L92.2,9.9z"/>
	<path d="M376.7,47c51.8,60.1,77.6,134.4,77.7,209c0,74.5-25.9,148.9-77.7,209c-10.3,11.9-8.9,29.9,3,40.1
		c11.9,10.3,29.9,8.9,40.1-3c60.9-70.7,91.5-158.5,91.5-246.1c0-87.7-30.5-175.5-91.5-246.1c-10.3-11.9-28.2-13.2-40.1-3
		S366.4,35.1,376.7,47L376.7,47z"/>
</g>
</svg>
